<?xml version="1.0" encoding="UTF-8"?>
<svg width="752pt" height="752pt" version="1.1" viewBox="0 0 752 752" xmlns="http://www.w3.org/2000/svg">
 <path d="m361.79 376h-56.828c-5.2305 0-9.4727 4.2422-9.4727 9.4727 0 5.2305 4.2422 9.4727 9.4727 9.4727h56.828c2.6172 0 4.7383 2.1211 4.7383 4.7344v56.832c0 5.2305 4.2383 9.4688 9.4688 9.4688 5.2344 0 9.4727-4.2383 9.4727-9.4688v-56.832c0-2.6133 2.1211-4.7344 4.7344-4.7344h56.832c5.2305 0 9.4727-4.2422 9.4727-9.4727 0-5.2305-4.2422-9.4727-9.4727-9.4727h-56.832c-2.6133 0-4.7344-2.1172-4.7344-4.7344v-56.828c0-5.2344-4.2383-9.4727-9.4727-9.4727-5.2305 0-9.4688 4.2383-9.4688 9.4727v56.828c0 2.6172-2.1211 4.7344-4.7383 4.7344z" fill="#124559" fill-rule="evenodd"/>
</svg>
