<?xml version="1.0" encoding="UTF-8"?>
<svg width="752pt" height="752pt" version="1.1" viewBox="0 0 752 752" xmlns="http://www.w3.org/2000/svg">
 <path d="m515.56 172.39c-2.1211 0.22656-4.1055 1.168-5.625 2.6641l-214.3 214.3v-0.003906c-1.5781 1.5391-2.5742 3.582-2.8125 5.7734l-6.6602 60.234c-0.33594 2.875 0.66406 5.75 2.7109 7.7969 2.0508 2.0469 4.9219 3.0469 7.7969 2.7109l60.234-6.8086c2.1211-0.23047 4.1055-1.168 5.625-2.6641l214.3-214.3c1.7969-1.7773 2.8086-4.2031 2.8086-6.7344 0-2.5273-1.0117-4.9531-2.8086-6.7305l-53.574-53.574c-2.0352-2.0039-4.8594-2.9805-7.6953-2.6641zm1.0352 22.793 40.254 40.254-13.32 13.32-40.254-40.254zm-335.65 24.566v-0.003906c-4.8789 0.46094-8.6055 4.5703-8.582 9.4727v340.98c0 5.2305 4.2383 9.4688 9.4727 9.4688h340.98c5.2305 0 9.4727-4.2383 9.4727-9.4688v-232.05c0.035156-2.5352-0.94531-4.9805-2.7266-6.7852s-4.2109-2.8242-6.7461-2.8242-4.9648 1.0195-6.7461 2.8242-2.7617 4.25-2.7266 6.7852v222.58h-322.04v-322.04h222.59c2.5352 0.035156 4.9766-0.94531 6.7812-2.7266 1.8086-1.7812 2.8242-4.2109 2.8242-6.7461s-1.0156-4.9648-2.8242-6.7461c-1.8047-1.7773-4.2461-2.7617-6.7812-2.7266h-232.05c-0.29688-0.011719-0.59375-0.011719-0.89063 0zm308.86 2.2188 40.254 40.254-170.79 170.79-40.254-40.254zm-179.66 188.69 31.078 31.078-34.926 3.8477z" fill="#124559"/>
</svg>
