<?xml version="1.0" encoding="UTF-8"?>
<svg width="752pt" height="752pt" version="1.1" viewBox="0 0 752 752" xmlns="http://www.w3.org/2000/svg">
 <g fill="#124559">
  <path d="m170.03 254.53h411.94c4.3594 0 7.8945-3.5312 7.8945-7.8945v-54.934c0-4.3594-3.5508-7.8945-7.8945-7.8945h-129.41v-35.438c0-4.3594-3.5508-7.8945-7.8945-7.8945h-137.34c-4.3594 0-7.8945 3.5312-7.8945 7.8945v35.438h-129.41c-4.3594 0-7.8945 3.5312-7.8945 7.8945v54.934c0.003906 4.3438 3.5352 7.8945 7.8945 7.8945zm145.2-98.266h121.51v27.543h-121.51zm-137.3 43.332h396.15v39.148h-396.15z"/>
  <path d="m197.5 266.19c-4.3594 0-7.8945 3.5312-7.8945 7.8945v247.15c0 49.785 40.512 90.277 90.297 90.277h192.21c49.785 0 90.297-40.492 90.297-90.277v-247.15c0-4.3594-3.5508-7.8945-7.8945-7.8945-4.3398 0-7.8945 3.5312-7.8945 7.8945v247.15c0 41.082-33.406 74.492-74.492 74.492h-192.25c-41.082 0-74.492-33.426-74.492-74.492l0.003906-247.15c0-4.3398-3.5508-7.8906-7.8945-7.8906z"/>
  <path d="m267.98 527.49v-203.11c0-4.3594-3.5508-7.8945-7.8945-7.8945-4.3398 0-7.8945 3.5312-7.8945 7.8945v203.11c0 4.3594 3.5508 7.8945 7.8945 7.8945s7.8945-3.5352 7.8945-7.8945z"/>
  <path d="m345.26 527.49v-203.11c0-4.3594-3.5508-7.8945-7.8945-7.8945-4.3398 0-7.8945 3.5312-7.8945 7.8945v203.11c0 4.3594 3.5508 7.8945 7.8945 7.8945s7.8945-3.5352 7.8945-7.8945z"/>
  <path d="m499.8 527.49v-203.11c0-4.3594-3.5508-7.8945-7.8945-7.8945-4.3398 0-7.8945 3.5312-7.8945 7.8945v203.11c0 4.3594 3.5508 7.8945 7.8945 7.8945 4.3398 0 7.8945-3.5352 7.8945-7.8945z"/>
  <path d="m422.53 527.49v-203.11c0-4.3594-3.5508-7.8945-7.8945-7.8945-4.3398 0-7.8945 3.5312-7.8945 7.8945v203.11c0 4.3594 3.5508 7.8945 7.8945 7.8945s7.8945-3.5352 7.8945-7.8945z"/>
 </g>
</svg>
